<svg width="24" height="24" viewBox="0 0 24 24" fill="none" xmlns="http://www.w3.org/2000/svg">
<path fill-rule="evenodd" clip-rule="evenodd" d="M4.58579 3H19.4142L22 5.58579V16.4142L19.4142 19H18V23L12.6667 19H4.58579L2 16.4142V5.58579L4.58579 3ZM5.41421 5L4 6.41421V15.5858L5.41421 17H13.3333L16 19V17H18.5858L20 15.5858V6.41421L18.5858 5H5.41421Z" fill="currentColor"/>
<path d="M10 6.5L10.8662 9.13379L13.5 10L10.8662 10.8662L10 13.5L9.13379 10.8662L6.5 10L9.13379 9.13379L10 6.5Z" fill="currentColor"/>
<path d="M14.5 11L15.1187 12.8813L17 13.5L15.1187 14.1187L14.5 16L13.8813 14.1187L12 13.5L13.8813 12.8813L14.5 11Z" fill="currentColor"/>
</svg>
