<svg width="16" height="16" viewBox="0 0 16 16" fill="none" xmlns="http://www.w3.org/2000/svg">
<path fill-rule="evenodd" clip-rule="evenodd" d="M1.79289 6.5C2.11304 6.17986 2.54725 6 3 6C3.45275 6 3.88696 6.17985 4.20711 6.5L4.5 6.79289C4.82014 7.11304 5 7.54725 5 8C5 8.45275 4.82014 8.88696 4.5 9.20711L4.20711 9.5C3.88696 9.82014 3.45275 10 3 10C2.54725 10 2.11304 9.82014 1.79289 9.5L1.5 9.20711C1.17986 8.88696 1 8.45275 1 8C1 7.54725 1.17986 7.11304 1.5 6.79289L1.79289 6.5ZM6.79289 6.5C7.11304 6.17986 7.54725 6 8 6C8.45275 6 8.88696 6.17986 9.20711 6.5L9.5 6.79289C9.82014 7.11304 10 7.54725 10 8C10 8.45275 9.82015 8.88696 9.5 9.20711L9.20711 9.5C8.88696 9.82014 8.45275 10 8 10C7.54725 10 7.11304 9.82014 6.79289 9.5L6.5 9.20711C6.17986 8.88696 6 8.45275 6 8C6 7.54725 6.17986 7.11304 6.5 6.79289L6.79289 6.5ZM11.7929 6.5C12.113 6.17986 12.5472 6 13 6C13.4528 6 13.887 6.17986 14.2071 6.5L14.5 6.79289C14.8201 7.11304 15 7.54725 15 8C15 8.45275 14.8201 8.88696 14.5 9.20711L14.2071 9.5C13.887 9.82014 13.4528 10 13 10C12.5472 10 12.113 9.82014 11.7929 9.5L11.5 9.20711C11.1799 8.88696 11 8.45275 11 8C11 7.54725 11.1799 7.11304 11.5 6.79289L11.7929 6.5Z" fill="currentColor"/>
</svg>
