<svg width="14" height="8" viewBox="0 0 14 8" fill="none" xmlns="http://www.w3.org/2000/svg">
<path fill-rule="evenodd" clip-rule="evenodd" d="M1.55769 3C2.41798 3 3.11538 2.32843 3.11538 1.5C3.11538 0.671573 2.41798 0 1.55769 0C0.697403 0 0 0.671573 0 1.5C0 2.32843 0.697403 3 1.55769 3ZM1.55769 8C2.41798 8 3.11538 7.32843 3.11538 6.5C3.11538 5.67157 2.41798 5 1.55769 5C0.697403 5 0 5.67157 0 6.5C0 7.32843 0.697403 8 1.55769 8ZM8.30769 1.5C8.30769 2.32843 7.61029 3 6.75 3C5.88971 3 5.19231 2.32843 5.19231 1.5C5.19231 0.671573 5.88971 0 6.75 0C7.61029 0 8.30769 0.671573 8.30769 1.5ZM6.75 8C7.61029 8 8.30769 7.32843 8.30769 6.5C8.30769 5.67157 7.61029 5 6.75 5C5.88971 5 5.19231 5.67157 5.19231 6.5C5.19231 7.32843 5.88971 8 6.75 8ZM13.5 1.5C13.5 2.32843 12.8026 3 11.9423 3C11.082 3 10.3846 2.32843 10.3846 1.5C10.3846 0.671573 11.082 0 11.9423 0C12.8026 0 13.5 0.671573 13.5 1.5ZM11.9423 8C12.8026 8 13.5 7.32843 13.5 6.5C13.5 5.67157 12.8026 5 11.9423 5C11.082 5 10.3846 5.67157 10.3846 6.5C10.3846 7.32843 11.082 8 11.9423 8Z" fill="currentColor"/>
</svg>
