<svg width="16" height="16" viewBox="0 0 16 16" fill="none" xmlns="http://www.w3.org/2000/svg">
<path d="M13.6469 10.0972C14.1816 9.7229 14.5 9.11132 14.5 8.45869V7.54131C14.5 6.88868 14.1816 6.2771 13.6469 5.90285L10.0165 3.36154C9.68031 3.12622 9.2799 3 8.86956 3H7.13044M2.5 2.5L4.44118 4.44118M13.5 13.5L11.5588 11.5588M4.44118 4.44118L2.35308 5.90285C1.81842 6.2771 1.5 6.88868 1.5 7.54131V8.45869C1.5 9.11132 1.81842 9.7229 2.35308 10.0972L5.98352 12.6385C6.31969 12.8738 6.7201 13 7.13044 13H8.86956C9.2799 13 9.68031 12.8738 10.0165 12.6385L11.5588 11.5588M4.44118 4.44118L11.5588 11.5588" stroke="currentColor" stroke-linecap="round"/>
</svg>
