<svg width="16" height="16" viewBox="0 0 16 16" fill="none" xmlns="http://www.w3.org/2000/svg">
<path d="M14.5 3.5C14.5 2.39543 13.6046 1.5 12.5 1.5H3.5C2.39543 1.5 1.5 2.39543 1.5 3.5V13.9325C1.5 14.3564 1.99443 14.588 2.32009 14.3166L3.94373 12.9636C4.30316 12.664 4.75623 12.5 5.2241 12.5H12.5C13.6046 12.5 14.5 11.6046 14.5 10.5V3.5Z" stroke="currentColor" stroke-linejoin="round"/>
<path d="M6.34702 6.46119C6.85523 6.25791 7.25791 5.85522 7.46119 5.34702L8 4L8.53881 5.34702C8.74209 5.85522 9.14478 6.25791 9.65298 6.46119L11 7L9.65298 7.5388C9.14478 7.74209 8.74209 8.14477 8.53881 8.65297L8 9.99999L7.46119 8.65297C7.25791 8.14477 6.85523 7.74209 6.34702 7.5388L5 7L6.34702 6.46119Z" stroke="currentColor" stroke-linejoin="round"/>
</svg>
