<svg width="24" height="24" viewBox="0 0 24 24" fill="none" xmlns="http://www.w3.org/2000/svg">
<path fill-rule="evenodd" clip-rule="evenodd" d="M12.0001 1.5C10.8061 1.5 9.69956 2.12649 9.08523 3.15038L8.4809 4.15761C8.07427 4.83533 7.34188 5.25 6.55154 5.25H6.17716C4.86528 5.25 3.66599 5.9912 3.07929 7.16459C2.49153 8.34011 2.62525 9.75018 3.41095 10.7978C3.94192 11.5057 3.94192 12.4943 3.41095 13.2022C2.62525 14.2498 2.49153 15.6599 3.07929 16.8354C3.66599 18.0088 4.86528 18.75 6.17716 18.75H6.55154C7.34188 18.75 8.07427 19.1647 8.4809 19.8424L9.08523 20.8496C9.69956 21.8735 10.8061 22.5 12.0001 22.5C13.1941 22.5 14.3006 21.8735 14.915 20.8496L15.5193 19.8424C15.9259 19.1647 16.6583 18.75 17.4487 18.75H17.8231C19.1349 18.75 20.3342 18.0088 20.9209 16.8354C21.5087 15.6599 21.375 14.2498 20.5893 13.2022C20.0583 12.4943 20.0583 11.5057 20.5893 10.7978C21.375 9.75018 21.5087 8.34011 20.9209 7.16459C20.3342 5.9912 19.1349 5.25 17.8231 5.25H17.4487C16.6583 5.25 15.9259 4.83533 15.5193 4.15762L14.915 3.15036C14.3006 2.12648 13.1941 1.5 12.0001 1.5ZM12.0001 8.25C11.2044 8.25 10.434 8.56607 9.87142 9.12868L9.12877 9.87132C8.56617 10.4339 8.2501 11.2044 8.2501 12C8.2501 12.7956 8.56617 13.5661 9.12877 14.1287L9.87142 14.8713C10.434 15.4339 11.2044 15.75 12.0001 15.75C12.7957 15.75 13.5662 15.4339 14.1288 14.8713L14.8714 14.1287C15.434 13.5661 15.7501 12.7956 15.7501 12C15.7501 11.2044 15.434 10.4339 14.8714 9.87132L14.1288 9.12868C13.5662 8.56607 12.7957 8.25 12.0001 8.25Z" fill="currentColor"/>
</svg>
