<svg width="16" height="16" viewBox="0 0 16 16" fill="none" xmlns="http://www.w3.org/2000/svg">
<path d="M9.51449 2.35749C9.19529 1.8255 8.62039 1.5 7.99999 1.5V1.5C7.37959 1.5 6.80469 1.82551 6.4855 2.3575L6.0826 3.02899C5.72116 3.6314 5.07014 4 4.36762 4H4.11803C3.43283 4 2.80643 4.38713 2.5 5V5C2.19357 5.61287 2.26277 6.35036 2.67389 6.89852V6.89852C3.16121 7.54828 3.16121 8.45172 2.67389 9.10148V9.10148C2.26277 9.64964 2.19357 10.3871 2.5 11V11C2.80643 11.6129 3.43283 12 4.11803 12H4.36762C5.07014 12 5.72116 12.3686 6.0826 12.971L6.48549 13.6425C6.80469 14.1745 7.37959 14.5 7.99999 14.5V14.5C8.62039 14.5 9.19529 14.1745 9.51449 13.6425L9.91739 12.971C10.2788 12.3686 10.9299 12 11.6324 12H11.882C12.5672 12 13.1936 11.6129 13.5 11V11C13.8064 10.3871 13.7372 9.64964 13.3261 9.10148V9.10148C12.8388 8.45172 12.8388 7.54828 13.3261 6.89852V6.89852C13.7372 6.35036 13.8064 5.61287 13.5 5V5C13.1936 4.38713 12.5672 4 11.882 4H11.6324C10.9299 4 10.2788 3.6314 9.91739 3.029L9.51449 2.35749Z" stroke="currentColor" stroke-linejoin="round"/>
<path d="M7.14644 6.85355C7.37281 6.62718 7.67984 6.5 7.99999 6.5V6.5C8.32013 6.5 8.62717 6.62718 8.85354 6.85355L9.14644 7.14645C9.37281 7.37282 9.49999 7.67986 9.49999 8V8C9.49999 8.32014 9.37281 8.62718 9.14644 8.85355L8.85354 9.14645C8.62717 9.37282 8.32013 9.5 7.99999 9.5V9.5C7.67984 9.5 7.37281 9.37282 7.14644 9.14645L6.85354 8.85355C6.62717 8.62718 6.49999 8.32014 6.49999 8V8C6.49999 7.67986 6.62717 7.37282 6.85354 7.14645L7.14644 6.85355Z" stroke="currentColor" stroke-linejoin="round"/>
</svg>
