<svg width="24" height="24" viewBox="0 0 24 24" fill="none" xmlns="http://www.w3.org/2000/svg">
<path fill-rule="evenodd" clip-rule="evenodd" d="M9.41181 2.34075C11.5381 1.771 13.7931 1.91879 15.8268 2.76121C17.8606 3.60362 19.5596 5.09358 20.6603 7L18.9282 8C18.0477 6.47487 16.6885 5.2829 15.0615 4.60897C13.4344 3.93503 11.6305 3.8168 9.92945 4.2726C8.22838 4.7284 6.72525 5.73276 5.65317 7.12991C4.97417 8.01481 4.49212 9.02594 4.22991 10.0959L4.9855 9.64251L6.0145 11.3575L2 13.7662L2 12C2 9.79866 2.72637 7.65883 4.06647 5.91239C5.40656 4.16595 7.28547 2.9105 9.41181 2.34075Z" fill="currentColor"/>
<path fill-rule="evenodd" clip-rule="evenodd" d="M22 10.2338V12C22 14.2013 21.2736 16.3412 19.9335 18.0876C18.5934 19.8341 16.7145 21.0895 14.5882 21.6593C12.4618 22.229 10.2069 22.0812 8.17314 21.2388C6.13937 20.3964 4.4404 18.9064 3.33972 17L5.07177 16C5.95231 17.5251 7.31149 18.7171 8.93851 19.391C10.5655 20.065 12.3695 20.1832 14.0705 19.7274C15.7716 19.2716 17.2747 18.2672 18.3468 16.8701C19.0258 15.9852 19.5079 14.9741 19.7701 13.9041L19.0145 14.3575L17.9855 12.6425L22 10.2338Z" fill="currentColor"/>
<path fill-rule="evenodd" clip-rule="evenodd" d="M10.3229 7H13.677L16 12.8074V16.5H14V14H10V16.5H8V12.8074L10.3229 7ZM10.477 12H13.523L12.3229 9H11.677L10.477 12Z" fill="currentColor"/>
</svg>
