<svg width="24" height="24" viewBox="0 0 24 24" fill="none" xmlns="http://www.w3.org/2000/svg">
<path d="M19.289 5.19459C17.9296 4.55857 16.4761 4.09633 14.9565 3.83313C14.7699 4.17054 14.5519 4.62437 14.4016 4.98539C12.7862 4.74246 11.1857 4.74246 9.60001 4.98539C9.44972 4.62437 9.22674 4.17054 9.03844 3.83313C7.51721 4.09633 6.06204 4.56026 4.70267 5.19796C1.96081 9.34132 1.21754 13.3818 1.58918 17.3649C3.40772 18.7229 5.17011 19.5479 6.90275 20.0877C7.33055 19.499 7.71209 18.8731 8.04078 18.2134C7.41478 17.9756 6.81521 17.682 6.24869 17.3413C6.39898 17.2299 6.546 17.1135 6.68803 16.9937C10.1434 18.6099 13.8978 18.6099 17.3119 16.9937C17.4556 17.1135 17.6026 17.2299 17.7512 17.3413C17.183 17.6837 16.5818 17.9772 15.9558 18.2151C16.2845 18.8731 16.6644 19.5007 17.0939 20.0894C18.8282 19.5496 20.5922 18.7246 22.4107 17.3649C22.8468 12.7475 21.6658 8.74411 19.289 5.19459ZM8.51153 14.9153C7.47426 14.9153 6.62361 13.9469 6.62361 12.7677C6.62361 11.5885 7.45609 10.6184 8.51153 10.6184C9.56699 10.6184 10.4176 11.5868 10.3994 12.7677C10.4011 13.9469 9.56699 14.9153 8.51153 14.9153ZM15.4884 14.9153C14.4511 14.9153 13.6005 13.9469 13.6005 12.7677C13.6005 11.5885 14.4329 10.6184 15.4884 10.6184C16.5438 10.6184 17.3945 11.5868 17.3763 12.7677C17.3763 13.9469 16.5438 14.9153 15.4884 14.9153Z" fill="currentColor"/>
</svg>
