<svg width="24" height="24" viewBox="0 0 24 24" fill="none" xmlns="http://www.w3.org/2000/svg">
<path fill-rule="evenodd" clip-rule="evenodd" d="M19.7773 4.42996C20.8652 3.97189 22.0315 4.89182 21.8394 6.05651L19.5705 19.8132C19.3517 21.1396 17.8949 21.9007 16.678 21.2397C15.6597 20.6866 14.1489 19.8353 12.7873 18.9456C12.1074 18.5013 10.0255 17.0767 10.2814 16.0626C10.5002 15.1955 14.0001 11.9376 16.0001 10.0001C16.7857 9.23905 16.4279 8.79938 15.5001 9.50012C13.1985 11.2384 9.50332 13.8813 8.28136 14.6251C7.20323 15.2813 6.64031 15.3933 5.96886 15.2813C4.74273 15.077 3.60596 14.7606 2.67788 14.3759C1.42351 13.8559 1.48461 12.1321 2.67703 11.6301L19.7773 4.42996Z" fill="currentColor"/>
</svg>
